<svg xmlns="http://www.w3.org/2000/svg" viewBox="0 0 32 32">
  <defs>
    <linearGradient id="bg" x1="0%" y1="0%" x2="100%" y2="100%">
      <stop offset="0%" style="stop-color:#1e3a8a;stop-opacity:1" />
      <stop offset="50%" style="stop-color:#3b82f6;stop-opacity:1" />
      <stop offset="100%" style="stop-color:#60a5fa;stop-opacity:1" />
    </linearGradient>
    <linearGradient id="text" x1="0%" y1="0%" x2="100%" y2="100%">
      <stop offset="0%" style="stop-color:#ffffff;stop-opacity:1" />
      <stop offset="100%" style="stop-color:#e2e8f0;stop-opacity:1" />
    </linearGradient>
  </defs>
  
  <!-- Fondo circular con gradiente -->
  <circle cx="16" cy="16" r="15" fill="url(#bg)" stroke="rgba(255,255,255,0.2)" stroke-width="1"/>
  
  <!-- Calendario -->
  <rect x="8" y="10" width="16" height="12" rx="2" fill="url(#text)" opacity="0.9"/>
  
  <!-- Líneas del calendario -->
  <line x1="8" y1="14" x2="24" y2="14" stroke="rgba(30, 58, 138, 0.3)" stroke-width="1"/>
  <line x1="8" y1="18" x2="24" y2="18" stroke="rgba(30, 58, 138, 0.3)" stroke-width="1"/>
  
  <!-- Puntos que representan semanas -->
  <circle cx="11" cy="12" r="1" fill="#1e3a8a"/>
  <circle cx="15" cy="12" r="1" fill="#1e3a8a"/>
  <circle cx="19" cy="12" r="1" fill="#1e3a8a"/>
  <circle cx="23" cy="12" r="1" fill="#1e3a8a"/>
  
  <circle cx="11" cy="16" r="1" fill="#3b82f6"/>
  <circle cx="15" cy="16" r="1" fill="#3b82f6"/>
  <circle cx="19" cy="16" r="1" fill="#3b82f6"/>
  <circle cx="23" cy="16" r="1" fill="#3b82f6"/>
  
  <circle cx="11" cy="20" r="1" fill="#60a5fa"/>
  <circle cx="15" cy="20" r="1" fill="#60a5fa"/>
  <circle cx="19" cy="20" r="1" fill="#60a5fa"/>
  <circle cx="23" cy="20" r="1" fill="#60a5fa"/>
  
  <!-- Punto actual destacado -->
  <circle cx="19" cy="16" r="2" fill="#fbbf24" stroke="#ffffff" stroke-width="1"/>
</svg>
